<?xml version="1.0" encoding="UTF-8"?>
<!DOCTYPE svg PUBLIC "-//W3C//DTD SVG 1.1//EN" "http://www.w3.org/Graphics/SVG/1.1/DTD/svg11.dtd">
<!-- Creator: CorelDRAW X7 -->
<svg xmlns="http://www.w3.org/2000/svg" xml:space="preserve" width="41.7541mm" height="23.2104mm" version="1.1" style="shape-rendering:geometricPrecision; text-rendering:geometricPrecision; image-rendering:optimizeQuality; fill-rule:evenodd; clip-rule:evenodd"
viewBox="0 0 1744 969"
 xmlns:xlink="http://www.w3.org/1999/xlink">
 <defs>
  <style type="text/css">
   <![CDATA[
    .fil1 {fill:#1D1D1B;fill-rule:nonzero}
    .fil2 {fill:#283578;fill-rule:nonzero}
    .fil0 {fill:#575756;fill-rule:nonzero}
    .fil3 {fill:#C91517;fill-rule:nonzero}
    .fil4 {fill:#FCC528;fill-rule:nonzero}
   ]]>
  </style>
 </defs>
 <g id="Capa_x0020_1">
  <metadata id="CorelCorpID_0Corel-Layer"/>
  <g id="_352630864">
   <path class="fil0" d="M35 936c5,4 15,6 24,6 21,0 32,-12 32,-26 0,-13 -8,-21 -23,-27 -13,-5 -19,-9 -19,-18 0,-6 5,-13 18,-13 8,0 14,2 17,4l3 -10c-4,-2 -11,-4 -20,-4 -18,0 -30,10 -30,25 0,13 10,20 25,26 12,4 17,9 17,18 0,9 -7,16 -19,16 -8,0 -16,-3 -21,-6l-4 9z"/>
   <path class="fil0" d="M147 942c16,0 33,-10 33,-35 0,-20 -13,-33 -32,-33 -18,0 -32,13 -32,35 0,20 13,33 31,33l0 0zm0 -9c-11,0 -19,-10 -19,-25 0,-12 6,-25 20,-25 14,0 19,14 19,25 0,15 -8,25 -20,25l0 0z"/>
   <path class="fil0" d="M208 941l12 0 0 -97 -12 0 0 97zm101 -66l-12 0 0 40c0,3 -1,5 -1,7 -2,5 -8,11 -16,11 -11,0 -15,-9 -15,-22l0 -36 -12 0 0 39c0,23 13,28 23,28 12,0 19,-6 22,-12l0 0 1 11 10 0c0,-5 0,-11 0,-18l0 -48z"/>
   <path class="fil0" d="M387 930c-3,1 -8,3 -15,3 -13,0 -22,-10 -22,-25 0,-14 8,-25 23,-25 6,0 11,2 14,3l2 -9c-3,-2 -9,-3 -16,-3 -22,0 -36,15 -36,35 0,20 13,33 33,33 9,0 16,-2 19,-3l-2 -9zm41 -55l-11 0 0 66 11 0 0 -66zm-6 -12c5,0 8,-3 8,-8 0,-4 -3,-7 -7,-7 -5,0 -8,3 -8,7 0,5 3,8 7,8l0 0zm67 79c15,0 32,-10 32,-35 0,-20 -12,-33 -31,-33 -18,0 -33,13 -33,35 0,20 14,33 32,33l0 0zm0 -9c-12,0 -20,-10 -20,-25 0,-12 6,-25 20,-25 14,0 20,14 20,25 0,15 -9,25 -20,25l0 0z"/>
   <path class="fil0" d="M550 941l12 0 0 -40c0,-2 0,-4 1,-5 2,-7 8,-13 16,-13 11,0 15,9 15,20l0 38 12 0 0 -39c0,-23 -14,-28 -23,-28 -11,0 -19,6 -22,12l0 0 -1 -11 -11 0c1,6 1,11 1,18l0 48z"/>
   <path class="fil0" d="M692 910c0,-1 0,-3 0,-5 0,-13 -6,-31 -27,-31 -19,0 -31,15 -31,35 0,20 12,33 32,33 11,0 18,-2 22,-4l-2 -8c-4,1 -9,3 -18,3 -12,0 -22,-7 -22,-23l46 0zm-46 -8c1,-9 6,-20 18,-20 13,0 17,12 17,20l-35 0z"/>
   <path class="fil0" d="M716 938c4,3 11,4 18,4 16,0 25,-8 25,-19 0,-10 -6,-16 -17,-20 -9,-3 -13,-6 -13,-11 0,-5 4,-9 11,-9 6,0 11,2 13,3l3 -8c-3,-3 -9,-4 -16,-4 -14,0 -22,8 -22,19 0,8 5,14 17,19 9,3 12,6 12,12 0,5 -4,9 -12,9 -6,0 -13,-2 -16,-4l-3 9z"/>
   <path class="fil0" d="M875 844l0 40 0 0c-3,-6 -10,-10 -20,-10 -16,0 -30,13 -30,35 0,20 13,33 28,33 11,0 19,-5 23,-12l0 0 1 11 10 0c0,-5 0,-11 0,-17l0 -80 -12 0zm0 69c0,2 0,4 -1,6 -2,8 -9,14 -17,14 -13,0 -20,-11 -20,-25 0,-14 8,-25 20,-25 9,0 16,6 17,14 1,1 1,3 1,5l0 11zm98 -3c0,-1 0,-3 0,-5 0,-13 -5,-31 -27,-31 -19,0 -31,15 -31,35 0,20 13,33 33,33 10,0 17,-2 22,-4l-2 -8c-5,1 -10,3 -19,3 -12,0 -22,-7 -22,-23l46 0zm-46 -8c1,-9 6,-20 18,-20 14,0 17,12 17,20l-35 0z"/>
   <path class="fil0" d="M1124 941l11 0 -5 -92 -15 0 -17 45c-4,11 -7,21 -9,31l-1 0c-2,-10 -5,-20 -9,-31l-16 -45 -15 0 -6 92 11 0 3 -39c0,-14 1,-29 1,-41l1 0c2,11 6,23 10,36l15 43 9 0 16 -44c5,-13 9,-24 12,-35l0 0c0,11 1,27 2,40l2 40zm89 -40c0,-14 -5,-27 -25,-27 -8,0 -16,2 -22,5l3 8c5,-3 11,-4 17,-4 14,-1 15,9 15,15l0 1c-25,0 -39,9 -39,25 0,9 6,18 20,18 9,0 16,-4 20,-9l0 0 1 8 11 0c-1,-5 -1,-10 -1,-16l0 -24zm-12 18c0,1 0,2 0,4 -2,5 -8,11 -16,11 -6,0 -11,-4 -11,-12 0,-13 14,-15 27,-15l0 12zm45 22l12 0 0 -35c0,-2 0,-4 0,-6 2,-9 8,-15 16,-15 2,0 3,0 4,0l0 -11c-1,0 -2,0 -3,0 -8,0 -15,5 -18,14l-1 0 0 -13 -11 0c1,6 1,13 1,21l0 45z"/>
   <path class="fil0" d="M1316 844l-12 0 0 97 12 0 0 -25 6 -7 23 32 14 0 -29 -39 26 -27 -15 0 -19 23c-2,2 -4,5 -6,7l0 0 0 -61z"/>
   <path class="fil0" d="M1430 910c0,-1 0,-3 0,-5 0,-13 -5,-31 -27,-31 -19,0 -31,15 -31,35 0,20 13,33 33,33 10,0 17,-2 22,-4l-3 -8c-4,1 -9,3 -18,3 -12,0 -22,-7 -22,-23l46 0zm-46 -8c1,-9 6,-20 18,-20 14,0 17,12 17,20l-35 0z"/>
   <path class="fil0" d="M1461 863l0 12 -10 0 0 9 10 0 0 36c0,8 2,14 5,17 3,4 7,5 13,5 5,0 8,0 11,-1l-1 -9c-2,0 -4,1 -7,1 -7,0 -9,-5 -9,-13l0 -36 17 0 0 -9 -17 0 0 -16 -12 4z"/>
   <path class="fil0" d="M1529 875l-12 0 0 66 12 0 0 -66zm-6 -12c5,0 8,-3 8,-8 0,-4 -3,-7 -8,-7 -5,0 -8,3 -8,7 0,5 3,8 8,8l0 0zm40 78l11 0 0 -40c0,-2 1,-4 1,-5 2,-7 9,-13 16,-13 12,0 16,9 16,20l0 38 11 0 0 -39c0,-23 -14,-28 -23,-28 -11,0 -18,6 -21,12l-1 0 0 -11 -11 0c0,6 1,11 1,18l0 48z"/>
   <path class="fil0" d="M1708 893c0,-8 0,-13 0,-18l-10 0 -1 10 0 0c-3,-5 -9,-11 -20,-11 -16,0 -30,12 -30,34 0,19 11,33 28,33 10,0 17,-5 21,-11l0 0 0 7c0,17 -9,23 -21,23 -8,0 -15,-2 -20,-5l-3 9c6,3 14,5 22,5 9,0 18,-2 24,-8 7,-5 10,-14 10,-30l0 -38zm-12 20c0,2 0,4 -1,6 -3,8 -9,13 -17,13 -12,0 -19,-11 -19,-24 0,-15 8,-25 19,-25 9,0 15,6 17,13 1,1 1,3 1,5l0 12z"/>
   <path class="fil1" d="M1137 782c0,-1 -15,-134 -21,-187 -1,-51 -36,-84 -89,-84 -18,0 -56,23 -83,40 2,-17 2,-45 2,-54 1,-6 -54,25 -95,31l-4 1 -2 26 4 5 9 0c17,0 26,5 26,33l6 154c0,16 1,36 2,48 1,12 48,8 48,-6 0,-47 8,-172 9,-203 14,-10 35,-24 63,-24 26,0 40,16 46,46 7,43 3,183 3,185 0,6 2,8 7,11 5,3 11,3 17,4 11,1 52,-6 52,-26z"/>
   <path class="fil1" d="M537 547l4 0 6 -39 -5 -5 -87 2c2,-26 4,-41 4,-41l1 -3 -19 -8 -2 2c0,1 -36,36 -75,56l-2 1c0,0 -4,16 -4,22 0,6 5,7 5,7l2 0c26,2 31,8 31,27l0 152c0,57 23,81 81,79 40,-2 68,-40 68,-40 0,0 -4,-19 -10,-24 -5,-5 -25,13 -44,13 -33,0 -44,-14 -44,-53 0,-68 3,-118 4,-150l86 2z"/>
   <path class="fil1" d="M693 541c1,0 2,0 3,0 30,1 45,17 44,47 0,10 -1,11 -11,11l-104 1c9,-36 36,-59 68,-59zm127 162l-7 5c0,0 -45,40 -112,41 -1,0 -1,0 -2,0 -20,0 -37,-7 -51,-21 -20,-20 -30,-53 -28,-91l0 -5 163 6 2 0 10 -8 1 -2c0,0 4,-15 5,-30 2,-61 -30,-94 -92,-97 -1,0 -3,0 -4,0 -73,0 -137,70 -140,154 -2,45 12,84 38,111 22,22 50,33 83,33 1,0 3,0 5,0 86,-4 127,-51 143,-77 1,-3 0,-11 -4,-17 -3,-6 -10,-2 -10,-2z"/>
   <path class="fil1" d="M1320 543c1,0 2,0 3,0 30,1 45,18 44,47 -1,10 -2,11 -12,12l-104 1c10,-37 36,-60 69,-60zm127 162l-8 5c0,0 -45,40 -112,41 0,0 -1,0 -2,0 -19,0 -37,-7 -50,-21 -20,-20 -30,-52 -29,-91l1 -5 162 7 2 0 11 -9 0 -2c0,0 4,-15 5,-30 2,-61 -29,-94 -91,-96 -2,0 -3,0 -5,0 -73,0 -137,69 -140,153 -2,45 12,84 39,111 22,22 50,33 82,33 2,0 4,0 6,0 85,-4 126,-51 142,-76 2,-3 0,-12 -3,-18 -4,-5 -10,-2 -10,-2z"/>
   <path class="fil1" d="M1621 721c-17,15 -38,27 -52,27 -22,0 -38,-16 -38,-37 0,-8 3,-30 15,-34l44 -17c11,-4 23,-9 35,-13l-4 74zm108 10c-3,3 -3,3 -3,3 0,0 -16,14 -34,14 -18,0 -21,-15 -21,-24 0,-20 4,-55 7,-86 0,-4 1,-8 1,-11 1,-13 2,-25 3,-34l0 0c0,-4 0,-8 0,-10 0,-53 -33,-85 -90,-85 -28,0 -100,42 -103,44l-3 2 9 32 7 4 3 -2c0,-1 33,-30 71,-30 32,0 50,22 50,61l-32 10c-6,2 -13,4 -19,6l-64 19c-2,1 -4,2 -6,3 -18,11 -30,47 -30,71 0,47 35,81 83,81 18,0 51,-29 67,-45 5,31 26,45 59,45l1 0 0 0c27,0 56,-48 57,-49l1 -3c3,-5 -7,-22 -14,-16z"/>
   <path class="fil1" d="M165 461l46 152c-33,2 -70,5 -102,7l56 -159zm196 153c-3,-3 -6,-5 -9,-8 -1,-1 -2,-1 -3,-1 -5,0 -9,1 -14,1 -12,0 -23,1 -35,2 -1,0 -13,1 -31,2 -34,-114 -66,-224 -66,-225l-1 -3 -8 0 -43 11 -87 229c-19,2 -32,2 -33,2 -3,0 -5,1 -6,4 -2,4 -2,8 -2,11 -1,7 1,12 5,18 2,3 5,6 7,9 1,1 1,3 2,4 0,2 1,2 2,1 0,0 3,0 7,-1l-15 40c-1,3 -2,6 -3,8 -15,35 -26,62 -27,63 -2,3 -1,5 1,7 2,3 5,5 9,7 5,4 30,10 35,0 1,0 2,-4 4,-10 10,-24 34,-95 43,-122 36,-5 83,-11 127,-18 22,90 44,170 44,171 2,11 40,9 48,6 5,-2 9,-5 13,-8 3,-4 4,-6 2,-11 -1,-2 -32,-106 -50,-166 40,-5 70,-9 70,-9 2,-1 5,-1 7,-2 2,0 5,-1 8,-1 2,-1 2,-2 2,-4 0,-3 -1,-5 -3,-7z"/>
   <path class="fil1" d="M1114 15c14,11 22,24 26,41 4,17 2,35 -6,51 -7,14 -18,24 -34,28 -20,6 -44,0 -57,-19 -6,-8 -9,-17 -10,-27 0,-3 -1,-6 -1,-9 -1,-11 3,-19 12,-26 7,-6 15,-8 24,-8 5,0 8,1 12,3 8,2 14,7 18,14 4,9 4,18 1,27 -1,3 -2,5 -5,8 -2,2 -5,2 -8,1 -2,-2 -4,-3 -6,-5 -2,-2 -2,-4 0,-7 1,-1 2,-1 3,-2 2,-1 3,-2 5,-4 1,-1 1,-2 0,-3 -2,-4 -5,-7 -9,-9 -2,-1 -3,-1 -5,0 -4,1 -7,3 -10,6 -7,8 -9,17 -7,27 2,8 8,13 16,16 7,3 14,3 21,0 16,-8 26,-21 28,-39 0,-5 -1,-10 -3,-15 -5,-9 -12,-16 -20,-22 -7,-6 -15,-9 -24,-11 -4,-1 -8,-1 -12,-1 -10,-1 -19,-1 -29,-1 -29,0 -58,-1 -86,-1 -35,0 -70,0 -105,0 -11,0 -23,0 -35,0 -18,0 -37,0 -55,0 -20,1 -39,1 -58,1 -8,1 -16,1 -24,2 -6,1 -11,2 -16,5 -11,6 -20,13 -27,23 -2,3 -3,7 -5,10 -1,6 -2,11 0,16 5,16 14,27 29,33 10,5 25,0 31,-9 4,-5 7,-10 6,-16 -1,-8 -4,-15 -10,-20 -2,-2 -4,-3 -7,-4 -3,-1 -5,-1 -8,1 -3,1 -6,4 -8,7 -1,2 -1,4 1,6 1,1 2,1 3,2 1,0 3,1 4,2 2,2 2,3 1,5 -2,4 -5,6 -10,8 -2,0 -3,-1 -5,-2 -3,-4 -6,-8 -6,-13 -1,-5 -1,-11 1,-17 3,-9 9,-15 18,-17 13,-4 24,-2 36,4 1,0 2,1 3,2 6,4 9,10 10,17 1,13 -1,26 -8,38 -9,14 -22,23 -38,26 -15,3 -28,-2 -39,-11 -12,-9 -19,-21 -22,-35 -5,-18 -4,-35 4,-52 6,-12 15,-21 26,-28 30,-17 442,-16 479,3z"/>
   <path class="fil1" d="M736 147c-1,-11 0,-23 0,-35 0,-5 0,-9 0,-14 0,-1 0,-2 1,-3 3,-3 6,-6 9,-8 2,-2 4,-3 7,-3 2,0 3,1 3,3 1,2 1,5 2,8 0,2 0,4 0,6 0,2 24,309 25,311 0,1 0,1 -2,2 -1,0 -2,1 -4,1 -3,2 -7,5 -10,7 -5,4 -11,5 -17,4 -4,0 -8,-1 -11,-3 -3,-1 -4,-3 -4,-7 1,-2 1,-265 1,-269z"/>
   <path class="fil1" d="M1014 147c0,-11 0,-23 0,-35 0,-5 0,-9 0,-14 0,-1 -1,-2 -2,-3 -2,-3 -5,-6 -8,-8 -2,-2 -4,-3 -7,-3 -2,0 -3,1 -4,3 0,2 -1,5 -1,8 0,2 -1,4 -1,6 0,2 -24,309 -24,311 0,1 0,1 1,2 2,0 3,1 4,1 4,2 7,5 11,7 5,4 11,5 17,4 4,0 8,-1 11,-3 3,-1 4,-3 4,-7 -1,-2 -1,-265 -1,-269z"/>
   <path class="fil1" d="M970 80c-4,2 -8,3 -12,4 -15,5 -30,9 -46,12 -5,1 -9,2 -14,3 -9,1 -19,2 -29,1 -12,-2 -24,-3 -36,-5 -16,-3 -33,-6 -49,-10 -2,-1 -4,-1 -7,-2 1,-1 2,-1 3,-1 8,-1 16,-1 25,-1 24,0 49,0 74,0 18,0 35,-1 52,-1 13,0 26,0 39,0z"/>
   <path class="fil2" d="M819 384c0,-3 0,-178 0,-189 0,-23 0,-47 0,-70 0,-2 0,-4 2,-5 1,-2 9,-6 11,-5 2,1 2,7 2,10 0,8 1,17 2,25 0,3 1,6 1,9 1,7 1,15 1,23 1,7 3,197 3,200 -1,8 -9,13 -10,13 -9,0 -12,-5 -12,-8 0,-1 0,-2 0,-3z"/>
   <path class="fil3" d="M941 384c0,-3 0,-178 0,-189 0,-23 0,-47 0,-70 0,-2 0,-4 -1,-5 -1,-2 -10,-6 -12,-5 -2,1 -1,7 -2,10 0,8 -1,17 -2,25 0,3 -1,6 -1,9 -1,7 -1,15 -1,23 0,7 -3,197 -3,200 1,8 9,13 11,13 8,0 11,-5 11,-8 0,-1 0,-2 0,-3z"/>
   <path class="fil4" d="M891 348c0,12 0,40 0,40 -2,3 -16,2 -18,1 -1,-1 -1,-156 -1,-167 1,-21 0,-43 0,-64 0,-3 1,-6 1,-9 1,-2 2,-4 3,-6 2,-1 2,-1 3,0 0,3 6,5 6,7 1,7 1,14 2,21 0,4 0,7 1,10 2,7 2,14 2,21 0,4 1,143 1,146z"/>
   <path class="fil1" d="M1062 398c1,0 3,0 4,0 1,0 4,-1 4,-5 0,-4 -3,-5 -7,-5 0,0 -1,0 -1,1 0,3 0,6 0,9zm-8 11c3,0 3,-1 3,-4l0 -15c0,-2 -1,-2 -2,-2l-1 0 0 -1 0 -2c0,0 4,0 6,0l1 0c2,0 4,0 4,0 7,0 11,2 11,7 0,5 -3,7 -7,8l4 6c2,3 4,4 6,4l0 1c0,2 -2,2 -5,2 -2,0 -3,-1 -5,-4l-4 -8 -3 0c0,2 0,4 0,5 0,3 0,3 3,3l0 1 0 2c0,0 -2,0 -4,0l-2 0c-2,0 -6,0 -6,0l1 -3zm12 13c12,0 22,-10 22,-22 0,-13 -10,-23 -22,-23 -13,0 -23,10 -23,23 0,12 10,22 23,22zm0 -49c14,0 26,12 26,27 0,14 -12,26 -26,26 -15,0 -27,-12 -27,-26 0,-15 12,-27 27,-27z"/>
  </g>
 </g>
</svg>
